HIERARCHY
ROOT RootJoint
{
    OFFSET   0.000000   0.000000   0.000000
    CHANNELS 6 Xposition Yposition Zposition Xrotation Yrotation Zrotation
    JOINT pelvis_lowerback
    {
        OFFSET   0.000000   0.093605   0.000000
        CHANNELS 3 Xrotation Yrotation Zrotation
        JOINT lowerback_torso
        {
            OFFSET   0.000000   0.100000   0.000000
            CHANNELS 3 Xrotation Yrotation Zrotation
            JOINT torso_head
            {
                OFFSET   0.000000   0.282350   0.000000
                CHANNELS 3 Xrotation Yrotation Zrotation
                End Site
                {
                    OFFSET   0.000000   0.192650   0.000000
                }
            }
            JOINT rTorso_Clavicle
            {
                OFFSET  -0.001000   0.157500   0.000000
                CHANNELS 3 Xrotation Yrotation Zrotation
                JOINT rShoulder
                {
                    OFFSET  -0.117647   0.000000   0.000000
                    CHANNELS 3 Xrotation Yrotation Zrotation
                    JOINT rElbow
                    {
                        OFFSET  -0.245000   0.000000   0.000000
                        CHANNELS 3 Xrotation Yrotation Zrotation
                        JOINT rWrist
                        {
                            OFFSET  -0.240000   0.000000   0.000000
                            CHANNELS 3 Xrotation Yrotation Zrotation
                            End Site
                            {
                                OFFSET  -0.116353  -0.002500   0.000000
                            }
                        }
                    }
                }
            }
            JOINT lTorso_Clavicle
            {
                OFFSET   0.001000   0.157500   0.000000
                CHANNELS 3 Xrotation Yrotation Zrotation
                JOINT lShoulder
                {
                    OFFSET   0.117647   0.000000   0.000000
                    CHANNELS 3 Xrotation Yrotation Zrotation
                    JOINT lElbow
                    {
                        OFFSET   0.245000   0.000000   0.000000
                        CHANNELS 3 Xrotation Yrotation Zrotation
                        JOINT lWrist
                        {
                            OFFSET   0.240000   0.000000   0.000000
                            CHANNELS 3 Xrotation Yrotation Zrotation
                            End Site
                            {
                                OFFSET   0.116353  -0.002500   0.000000
                            }
                        }
                    }
                }
            }
        }
    }
    JOINT rHip
    {
        OFFSET  -0.100000  -0.051395   0.000000
        CHANNELS 3 Xrotation Yrotation Zrotation
        JOINT rKnee
        {
            OFFSET   0.000000  -0.410000   0.000000
            CHANNELS 3 Xrotation Yrotation Zrotation
            JOINT rAnkle
            {
                OFFSET   0.000000  -0.390000   0.000000
                CHANNELS 3 Xrotation Yrotation Zrotation
                JOINT rToeJoint
                {
                    OFFSET   0.000000  -0.050000   0.130000
                    CHANNELS 3 Xrotation Yrotation Zrotation
                    End Site
                    {
                        OFFSET  -0.010000   0.002000   0.060000
                    }
                }
            }
        }
    }
    JOINT lHip
    {
        OFFSET   0.100000  -0.051395   0.000000
        CHANNELS 3 Xrotation Yrotation Zrotation
        JOINT lKnee
        {
            OFFSET   0.000000  -0.410000   0.000000
            CHANNELS 3 Xrotation Yrotation Zrotation
            JOINT lAnkle
            {
                OFFSET   0.000000  -0.390000   0.000000
                CHANNELS 3 Xrotation Yrotation Zrotation
                JOINT lToeJoint
                {
                    OFFSET   0.000000  -0.050000   0.130000
                    CHANNELS 3 Xrotation Yrotation Zrotation
                    End Site
                    {
                        OFFSET   0.010000   0.002000   0.060000
                    }
                }
            }
        }
    }
}
MOTION
Frames: 11
Frame Time:   0.008333
 -1.676377   0.837800   4.201847  -1.898339 -15.570799   2.850514  16.287300  -5.342911   4.708846   3.841243  -5.620542   7.827126   1.378783   4.997792  -1.619204   0.321110   3.504959   0.965689  -4.632917  13.779103  52.133334 179.985575  81.623661 179.989493  -1.552268   3.810388  -2.642796  -5.331793 -11.251406   5.380883 -22.309623  -5.796612 -46.848072 179.993652 -81.900393 179.988624  -1.791802  -6.313234  12.749114 -16.861059   1.354262 -23.166079  40.771445   0.003099   0.001493 -24.484624   3.383516   3.312701   2.709099   0.001057   0.000801  -4.754827  -1.124686  26.032165  21.360742   0.004354   0.005755   3.328295  -0.062303  -8.992071 -14.398411  -0.050124  -0.062782
 -1.670751   0.836233   4.201965  -2.079794 -13.935218   2.801291  16.321244  -5.364078   4.725792   3.987085  -5.950679   7.996556   1.313167   4.781916  -1.572823   0.494862   3.290099   1.157134  -4.356187  13.176700  52.771013 179.997535  81.850717 179.980997  -1.627359   3.188273  -2.741384  -5.340767 -11.641817   5.129346 -22.086012  -6.754099 -47.786235 179.991068 -81.387643 179.981423  -1.698516  -6.150939  12.567899 -16.093963   0.907394 -23.613220  40.611010   0.001320  -0.000203 -24.615776   2.215660   3.203792   2.727182   0.000918   0.000652  -5.680020  -1.773095  25.711064  22.151327   0.007920   0.012698   2.329206  -0.680883  -8.756395 -17.148232  -0.044885  -0.064837
 -1.665215   0.834966   4.202342  -2.357790 -12.185463   2.810959  16.294488  -5.262798   4.729099   4.130606  -6.197150   8.121823   1.255569   4.581231  -1.521075   0.610950   3.150983   1.333087  -4.146404  12.657878  53.387900 -179.990803  82.028939 179.972537  -1.698366   2.722984  -2.862587  -5.263606 -12.045468   4.781647 -21.822181  -7.695775 -48.777106 179.996462 -80.868974 179.983030  -1.586495  -6.150699  12.102903 -15.158276   0.458205 -24.116105  40.468280  -0.000048  -0.001547 -24.638879   1.061533   3.019736   2.740817   0.000798   0.000545  -6.624733  -2.429313  25.266757  23.033750   0.011862   0.020019   1.431777  -1.350392  -8.567840 -19.247704  -0.040086  -0.065227
 -1.659889   0.833827   4.202901  -2.675183 -10.383822   2.846520  16.205797  -5.072395   4.714935   4.238388  -6.342954   8.214062   1.198397   4.397706  -1.467676   0.684245   3.076308   1.496759  -3.984242  12.211279  53.975008 -179.980250  82.180379 179.964835  -1.762802   2.376828  -2.936921  -5.145806 -12.405864   4.411340 -21.545867  -8.573408 -49.732723 -179.992423 -80.383643 179.992067  -1.477591  -6.171395  11.530429 -14.156298  -0.023295 -24.615040  40.357894  -0.000904  -0.002344 -24.587141  -0.050751   2.810266   2.338521  -0.001345  -0.000524  -7.547135  -3.056480  24.763713  23.901253   0.015280   0.026079   0.610461  -2.014151  -8.410971 -20.969746  -0.035354  -0.064569
 -1.655216   0.833175   4.203384  -3.011060  -8.514550   2.971474  16.086009  -4.815821   4.580066   4.305762  -6.400062   8.264245   1.134529   4.227484  -1.413918   0.733118   3.054286   1.696382  -3.853418  11.824441  54.550132 -179.969979  82.319240 179.957003  -1.821597   2.096840  -2.968679  -5.010769 -12.709305   4.042836 -21.270285  -9.376873 -50.619752 -179.977893 -79.939019 -179.994155  -1.375598  -6.174414  10.949005 -13.090833  -0.514758 -25.121210  40.239193  -0.001655  -0.003156 -24.423767  -1.107480   2.564702   1.684987  -0.004348  -0.002767  -8.500469  -3.694580  24.221161  24.821657   0.018079   0.032047  -0.410508  -2.679564  -8.414143 -19.435568  -0.024746  -0.039573
 -1.651011   0.832657   4.203938  -3.345369  -6.607529   3.109332  15.911303  -4.493008   4.431097   4.329608  -6.374645   8.270227   1.076013   4.070508  -1.368836   0.758568   3.063803   1.867590  -3.748688  11.485090  55.088800 -179.961615  82.439711 179.950817  -1.877062   1.874059  -2.957032  -4.871424 -12.950567   3.705312 -21.004518 -10.108263 -51.437342 -179.962887 -79.526886 -179.978781  -1.283569  -6.148414  10.424209 -12.000388  -1.027731 -25.569218  40.138323  -0.002118  -0.003659 -24.211349  -2.092833   2.320167   0.851933  -0.007546  -0.006148  -9.434640  -4.306136  23.661874  25.652224   0.019879   0.035926  -1.201516  -3.335231  -8.374810 -18.109777  -0.016840  -0.020938
 -1.647215   0.832135   4.204591  -3.673039  -4.658205   3.247641  15.689260  -4.125263   4.271303   4.305492  -6.284743   8.249778   1.020655   3.925584  -1.328460   0.761575   3.094354   2.009755  -3.667474  11.182269  55.585550 -179.955269  82.545265 179.946391  -1.927666   1.701204  -2.925516  -4.737327 -13.135274   3.404754 -20.754564 -10.772685 -52.182174 -179.948917 -79.144144 -179.963659  -1.198224  -6.103468   9.972912 -10.894825  -1.561637 -25.948771  40.072280  -0.002219  -0.003700 -23.985362  -3.011167   2.088566  -0.126465  -0.010604  -0.010660 -10.352915  -4.882479  23.100768  26.406260   0.020934   0.038363  -1.877821  -3.947469  -8.321125 -16.823469  -0.010599  -0.005528
 -1.643302   0.832727   4.205470  -3.993625  -2.451251   3.455548  15.315010  -3.598269   4.205625   4.298568  -6.208080   8.200688   1.126508   3.335444  -1.211034   0.898303   3.241873   1.958668  -3.915542  10.841383  55.987167 179.988376  82.228917 -179.995331  -2.069254   1.044912  -3.006579  -4.564622 -13.280482   3.148571 -20.247541 -11.659152 -53.315247 -179.923350 -78.441490 -179.940168  -1.189776  -5.887251   9.682998  -9.770244  -2.345620 -26.286698  39.976327  -0.002490  -0.004154 -23.185973  -4.483080   1.811781  -1.701927  -0.015898  -0.010889 -11.015169  -5.790737  22.391622  26.595050   0.017934   0.032749  -2.188995  -4.955214  -7.967847 -16.036765  -0.007596  -0.002274
 -1.639676   0.833387   4.206509  -4.265066  -0.068267   3.751636  14.809322  -3.024406   4.090874   4.210399  -6.072762   8.104649   1.246795   2.771084  -1.078388   0.946634   3.424334   1.818075  -4.223488  10.561233  56.338464 179.935142  81.870031 -179.941141  -2.189526   0.660583  -3.102691  -4.341456 -13.391889   2.909849 -19.734480 -12.518574 -54.409462 -179.897223 -77.744908 -179.914679  -1.168638  -5.821626   9.188625  -8.501531  -3.148299 -26.622098  39.795216  -0.003536  -0.005904 -21.935776  -5.877683   1.415143  -5.843564  -0.040252  -0.027794 -11.732575  -6.666272  21.568305  26.607894   0.014440   0.026351  -2.356818  -5.949970  -7.612428 -15.182018  -0.005174   0.001720
 -1.636077   0.834282   4.207636  -4.538118   2.403693   4.024836  14.284335  -2.392659   4.034524   4.061181  -5.862516   7.987351   1.353706   2.247610  -0.954097   0.918031   3.641931   1.621061  -4.574659  10.317340  56.622072 179.893618  81.518715 -179.899164  -2.290332   0.436681  -3.243101  -4.113992 -13.469205   2.676713 -19.249098 -13.317328 -55.428993 -179.875107 -77.092798 -179.891712  -1.143633  -5.786043   8.689079  -7.267562  -3.985648 -26.852348  39.708366  -0.003581  -0.006009 -21.004467  -7.236353   1.130597  -7.659657  -0.041900  -0.033568 -12.452984  -7.470410  20.730083  26.521507   0.010966   0.019921  -2.414858  -6.871482  -7.236018 -14.263448  -0.003291   0.006785
 -1.632664   0.835078   4.208925  -4.801242   4.987938   4.309441  13.710593  -1.742182   3.951406   3.852455  -5.603129   7.854578   1.453683   1.760779  -0.832207   0.850985   3.870809   1.402453  -4.939117  10.102359  56.869726 179.862048  81.177317 -179.867427  -2.377744   0.314749  -3.404458  -3.897174 -13.504400   2.483375 -18.796586 -14.052995 -56.357599 -179.856607 -76.484485 -179.871189  -1.120888  -5.741579   8.230807  -5.980309  -4.816576 -27.029302  39.626115  -0.003653  -0.006108 -19.931280  -8.507754   0.832954  -9.919612  -0.047195  -0.046411 -13.212722  -8.216555  19.856548  26.390815   0.007858   0.014017  -2.446831  -7.738102  -6.882839 -13.218109  -0.001510   0.013408
